<?xml version="1.0" encoding="utf-8"?>
<!-- Generator: Adobe Illustrator 16.0.4, SVG Export Plug-In . SVG Version: 6.00 Build 0)  -->
<!DOCTYPE svg PUBLIC "-//W3C//DTD SVG 1.1//EN" "http://www.w3.org/Graphics/SVG/1.1/DTD/svg11.dtd">
<svg version="1.1" id="Layer_1" xmlns="http://www.w3.org/2000/svg" xmlns:xlink="http://www.w3.org/1999/xlink" x="0px" y="0px"
	 width="1545.69px" height="321.271px" viewBox="97.23 35.505 1545.69 321.271"
	 enable-background="new 97.23 35.505 1545.69 321.271" xml:space="preserve">
<path fill="#78AA3D" d="M271.88,72.78c31.21-19.97,66.98-33.46,104.09-36.23c10.29-1.35,20.74-1.43,31.03-0.02
	c48.15,3.58,93.6,23.58,133.41,50.09c33.609,22.26,63.859,49.21,92.01,77.959c20.391,21.301,40.25,43.08,59.43,65.471
	c1.382,1.6,2.62,3.32,3.82,5.07c-11.39-12.25-22.07-25.131-33.06-37.711c-9.15-9.22-17.87-18.869-27.432-27.689
	c-29.12-27.79-60.948-53.1-96.31-72.54c-39.58-21.78-84.602-35.62-130.1-33.34c-29.93,1.32-59.4,9.44-86.19,22.74
	c-26.76,13.12-50.97,31.03-72.6,51.43c-30.64,28.96-56.39,62.871-77.44,99.32c-9.284,0.465-15.162,0.313-18.58,0.291
	c-9.65-0.15-19.28,0.078-28.93-0.152c19.73-32.319,41.61-65.418,66.55-93.938C215.21,116.71,241.59,91.97,271.88,72.78z"/>
<path fill="#FFB931" d="M312.3,117.32c31.63-18.52,67.85-29.97,104.67-30.14c26.98-0.56,53.891,4.67,79.181,13.92
	c37.698,13.71,71.868,35.69,102.77,61.021c5.44,4.6,11.11,8.959,16.18,13.979c-31.71-18.23-63.88-36.07-98.25-48.87
	c-20.84-7.66-42.55-13.68-64.81-14.97c-24.23-1.79-49.2,3.15-70.22,15.56c-23.36,13.6-41.37,34.689-55.58,57.37
	c-9.86,15.931-18.73,34.831-25.74,52.201c-35.02,0.271-68.73-0.269-103.75,0.032c8.3-14.771,17.5-29.492,28-42.752
	C249.3,164.24,278.43,137.09,312.3,117.32z"/>
<path fill="#9E9CA0" d="M369.84,164.56c17.86-14.75,40.24-23.89,63.3-26.01c19.842-2.12,39.88,1.08,58.95,6.55
	c37.91,11.42,72.18,32.399,103.37,56.42c14.18,11.229,28.21,22.81,40.73,35.91c-60.882-0.16-121.762,0.14-182.65,0.03
	c-0.26-17.26-5.38-35.891-16.94-49.03c-10.448-12.39-25.6-20.3-41.5-22.91C386.78,163.9,378.26,164.14,369.84,164.56z"/>
<path fill="#050505" d="M328.09,254.14c16.46-8.76,35.96-9.54,54-6.33c3.48,0.949,6.97,1.84,10.39,2.98
	c-1.75,7.069-3.3,14.199-4.63,21.35c-0.84,1.75-2.52,0-3.72-0.311c-11.1-5.58-24.33-6.56-36.15-2.77
	c-9.73,3.66-17.96,11.18-21.82,20.92c-4.13,10.539-5.31,23.199,0.29,33.439c3.55,6.49,10.35,10.289,17.37,11.92
	c11.41,1.49,23.1-0.711,33.17-6.291c-1.22,7.59-3.42,14.99-4.71,22.57c-5.05,2.58-10.7,3.5-16.21,4.57
	c-12.23,1.1-25.07,0.77-36.25-4.91c-9.03-4.75-16.19-12.879-19.56-22.529c-3.51-9.18-3.29-19.221-2.47-28.861
	C300.28,281.11,311.03,263.07,328.09,254.14z"/>
<path fill="#050505" d="M490.83,267.03c-7.15-13.6-22.73-21.44-37.86-20.86c-12.028-0.58-24.278,2.641-34.15,9.631
	c-13.29,8.859-21.59,23.699-25.05,39.05c-1.71,9.669-2.15,19.669-0.01,29.319c1.2,3.93,2.5,7.85,4.55,11.441
	c5.86,10.658,16.79,18.139,28.73,20.229c12.15,2.021,24.9,0.49,36.15-4.6c12.75-6.461,22.67-17.82,28.05-31
	C497.71,303.429,499.57,283.39,490.83,267.03z M467.95,311.929c-2.84,8.15-7.78,16-15.392,20.42
	c-6.528,3.883-14.688,4.32-21.828,2.012c-3.19-1.709-6.271-3.811-8.29-6.879c-3.07-4.16-3.96-9.361-4.71-14.352
	c-0.02-2.09-0.01-4.17,0.02-6.24c1.11-10.01,3.53-20.29,9.68-28.479c3.4-4.67,8.28-8.141,13.61-10.301
	c6.11-1.939,12.99-1.9,18.729,1.18c6.012,3.01,9.472,9.431,10.722,15.819C472.26,294.08,470.57,303.3,467.95,311.929z"/>
<path fill="#050505" d="M621.35,256.27c5.342-5.11,12.42-7.89,19.512-9.54c7.71-0.79,15.51-0.76,23.22,0.07
	c5.74,1.189,11.438,2.609,16.89,4.81c-0.66,7.06-2.68,13.899-3.79,20.899c-2.278-1.43-4.659-2.67-7.068-3.84
	c-7.892-2.879-16.75-5.42-25.021-2.68c-3.46,1.02-5.8,3.881-7.58,6.84c-0.729,4.4-0.16,9.221,3.271,12.392
	c7.188,7.049,17.17,10.579,23.88,18.239c12.438,12.24,9.75,35.049-4.08,45.15c-8.16,6.01-18.6,8.17-28.58,8.039
	c-9.92,0.25-19.77-2.051-28.91-5.801c-0.96-0.551-2.28-0.699-2.88-1.68c-0.17-2.391,0.42-4.75,0.96-7.051
	c0.21-1.449,0.41-2.879,0.6-4.32l0.4-0.58c0.42-3.068,1.1-6.08,1.63-9.119c4.7,3.33,9.892,5.91,15.34,7.771
	c6.802,1.869,14.33,2.92,21.12,0.49c5.521-1.92,8.352-8.49,6.551-13.92c-0.961-3.682-4.119-6.121-7.029-8.271
	c-7.261-5-15.82-8.52-21.432-15.6C608.09,286.609,609.76,266.77,621.35,256.27z"/>
<path fill="#050505" d="M817.11,334.96c-1.062-1.24-4.03-3.031-2.15-4.77c7.521-6.932,14.31-14.691,19.729-23.383
	c6.641-10.578,11.699-22.869,10.771-35.579c-6.69-0.021-13.38,0.04-20.07-0.03c0.78,15.721-6.448,30.961-17.27,42.061
	c-0.99,0.74-1.62,2.48-3.04,2.271c-4.47-8.75-10.51-16.951-18.75-22.471c2.21-0.58,4.359-1.359,6.479-2.25
	c6.91-2.891,13.222-7.65,16.472-14.57c1.97-6.35,1.88-13.82-2.24-19.32c-2.83-4.359-7.45-7-12.15-8.899
	c-8.08-2.569-16.688-1.99-25-1.271c-9.71,1.971-19.54,7.471-22.858,17.36c-1.41,5.2-1.59,10.64,0.028,15.81
	c1.7,4.261,4.16,8.211,7.632,11.261c-7.592,2.771-15.29,5.819-21.552,11.069c-6.54,5.35-11.409,13.25-11.698,21.85
	c-0.54,7.711,1.64,15.852,7.01,21.562c6.88,7.719,17.58,10.83,27.63,10.969c15.18,0.65,30.479-4.77,42.16-14.438
	c3.06,3.629,5.84,7.648,9.858,10.299c8.46,5.891,19.75,4.91,29.07,1.811c0.45-6.068,2.16-11.961,2.72-18.01
	C832.67,338.83,823.31,340.75,817.11,334.96z M771.33,264.291c2.52-1.871,5.729-1.99,8.7-2.61c4.67,0.37,9.55,3.88,9.028,9.03
	c-0.72,7.549-8.789,10.47-14.93,12.67c-0.39,0.06-1.18,0.17-1.57,0.229c-2-2.04-4.5-3.899-5.358-6.75
	C765.54,272.38,767.12,266.78,771.33,264.291z M775.93,335.88c-1.26,0.459-2.54,0.879-3.77,1.359c-5.892,1.41-12.37,2.51-18.15,0.1
	c-5.21-2.148-8.79-7.67-8.46-13.32c-0.14-6.328,3.95-11.92,8.771-15.639c4.14-3.02,8.76-5.66,13.729-6.951
	c10.392,5.451,17.48,15.42,22.352,25.83C786.16,331.009,781.13,333.72,775.93,335.88z"/>
<path fill="#050505" d="M1589.6,251.52c10.98-6.47,24.222-5.81,36.45-4.69c5.72,1.23,11.4,2.68,16.87,4.82
	c-0.51,3.221-1.25,6.4-1.74,9.63l-0.38,0.57c-0.22,1.43-0.399,2.86-0.62,4.28c-0.5,1.899-0.79,3.85-1.029,5.8
	c-0.561-0.12-1.689-0.36-2.25-0.49c-0.939-0.58-1.851-1.16-2.75-1.729c-8.461-3.561-18.119-6.58-27.229-3.78
	c-5.78,1.75-9.82,8.42-7.51,14.26c1.97,6.089,8.12,9.181,13.09,12.511c7.63,4.699,15.22,10.26,19.37,18.449
	c3.29,7.641,3.09,16.279,0.479,24.08c-3.108,7.891-9.438,14.43-17.35,17.539c-9.771,4.24-20.66,4.359-31.09,3.449
	c-6.16-1.139-12.26-2.6-18.07-4.93c-1.5-0.689-2.99-1.389-4.438-2.08c1.52-7.02,2.64-14.119,4.288-21.109
	c3.762,2.859,8.012,4.99,12.382,6.779c1.229,0.441,2.52,0.852,3.79,1.312c6.67,1.688,13.85,2.34,20.5,0.158
	c7.56-3.08,8.76-14.34,2.648-19.398c-8.24-7.191-19.63-10.531-26.069-19.791c-5.301-6.881-6.391-15.91-5.209-24.3
	C1575.78,263.93,1581.35,255.77,1589.6,251.52z"/>
<path fill="#050505" d="M204.24,279.83c-0.48-1.58-0.89-3.18-1.33-4.76c-1.87-4.74-4.22-9.4-7.8-13.08
	c-8.14-8.97-20.34-13.3-32.23-13.88c-14.04-0.851-28.6-0.294-42.67-0.444c-0.2,0.25-0.15,0.844-0.35,1.094
	c-1.56,5.98-2.48,12.121-4,18.111c-0.5,2.77-1.14,5.52-1.68,8.289c-2.34,10.99-4.75,21.98-7.01,32.99
	c-2.4,10.988-4.7,21.988-7.06,32.988c-0.46,1.9-0.78,3.842-1.24,5.75c-0.51,2.621-1.11,5.223-1.64,7.83
	c13.94-0.027,27.89-0.01,41.83-0.01c9.08,0.191,18.22-0.869,26.84-3.83c1.01-0.35,2.02-0.699,3.02-1.059
	c17.21-6.473,29.92-22.07,34.23-39.771C205.32,300.16,206.37,289.83,204.24,279.83z M170.77,321.701
	c-5.06,6.549-12.72,10.549-20.62,12.58c-2.08,0.219-4.16,0.41-6.23,0.67c-6.08,0.688-12.21,0.16-18.31,0.33
	c1.09-5.131,2.27-10.24,3.26-15.381c2.5-11.25,4.73-22.561,7.29-33.791c1.09-6.219,2.69-12.339,3.83-18.561
	c7.98,0.08,16.11-0.689,23.89,1.531c7.42,2.239,13.56,8.219,15.11,15.93C181.22,297.611,178.89,311.531,170.77,321.701z"/>
<path fill="#050505" d="M231.84,261.871c1.55-4.591,1.19-10.051,3.8-14.121c18.78-0.08,37.56,0.01,56.34-0.039
	c1.55-0.041,3.08,0.22,4.61,0.5c-1.73,6.369-2.76,12.91-4.31,19.33c-12.49,0-24.97-0.08-37.45,0.039
	c-1.31,8.03-3.41,15.91-4.9,23.91c11.6,0.02,23.2-0.01,34.8,0.02c-1.44,6.59-2.81,13.191-4.36,19.75c-11.53-0.039-23.07,0-34.6-0.02
	c-1.79,7.689-3.09,15.51-5.27,23.109c0.31,0.24,0.94,0.721,1.25,0.959c12.93-0.059,25.86-0.059,38.79,0
	c-1.41,5.5-2.4,11.092-3.68,16.611c-0.13,0.689-0.38,2.061-0.51,2.75c-21.4,0.08-42.81,0.021-64.21,0.029
	c2.33-10.859,4.61-21.73,6.96-32.59c1.83-9.092,3.96-18.131,5.72-27.24C227.23,283.89,229.62,272.89,231.84,261.871z"/>
<path fill="#050505" d="M592.96,260.15c-4.3-6.359-11.58-9.641-18.8-11.4c-2.09-0.229-4.19-0.42-6.26-0.66
	c-13.75-0.869-27.58-0.08-41.36-0.409c-2.53,9.71-4.32,19.59-6.44,29.39c-5.188,23.59-9.908,47.279-15.238,70.832
	c-0.23,1.408-0.44,2.818-0.63,4.238c-0.312,0.842-0.602,1.682-0.882,2.529c8.25,0.01,16.5,0.16,24.75-0.09
	c2.5-13.699,5.67-27.279,8.58-40.9c2.13,0.012,4.271,0.031,6.42,0.031c4.052,1.129,8,3.529,9.552,7.65
	c2.8,6.959,3.47,14.568,5.198,21.84c0.95,3.818,1.61,7.709,2.552,11.539c8.52-0.07,17.04-0.01,25.568-0.039
	c-2.54-12.031-5.51-23.99-8.688-35.861c-2.2-5.34-6.19-9.779-11.57-12.01c1.47-0.219,2.93-0.41,4.42-0.6
	c8.95-2.342,17.84-7.061,22.69-15.24C598.6,281.839,598.84,269.3,592.96,260.15z M566.02,291.02
	c-7.13,6.041-17.02,4.631-25.658,4.76c0.58-2.288,1.08-4.59,1.47-6.909c1.75-7.68,3.33-15.39,4.97-23.09
	c5.78,0.221,11.8-0.74,17.37,1.24c3.58,1.24,5.66,4.58,7.18,7.83C572.2,280.71,570.88,287.201,566.02,291.02z"/>
<path fill="#050505" d="M1066.061,350.919c-0.841-4.93-1.37-9.9-2.181-14.82c-1.43-11.438-3.49-22.799-4.71-34.26l-0.4-0.629
	c-0.43-4.729-1.198-9.42-1.908-14.11c-1.44-11.438-3.422-22.8-4.762-34.25c-0.76-1.82,0.211-5.851-2.979-5.14
	c-8.78-0.01-17.55,0.049-26.312-0.01c-20.85,35.529-41.21,71.357-61.908,106.99c9.02-0.041,18.04,0.148,27.05-0.08
	c4.438-7.58,8.22-15.553,12.46-23.25c12.84-0.5,25.75-0.15,38.62-0.16c0.63,7.84,2.199,15.58,2.738,23.438
	c8.28,0.131,16.562,0.053,24.852,0.053C1066.48,353.75,1066.2,351.861,1066.061,350.919z M1009.58,312.599
	c3.74-6.92,7.47-13.85,11.16-20.788c2.72-4.961,5.31-9.979,8.04-14.92c1.77-3.29,3.05-6.81,4.54-10.229
	c-0.131,5.489-0.2,10.989,0.58,16.439c0.68,3.561,0.52,7.23,1.27,10.791c0.271,3,0.37,6.029,0.98,8.998
	c0.3,3.23,0.488,6.461,0.738,9.701C1027.78,312.55,1018.68,312.531,1009.58,312.599z"/>
<path fill="#050505" d="M1168.58,259.589c-6.312-8.58-17.41-11.34-27.51-11.799c-12.802-0.181-25.59,0.01-38.381-0.09
	c-0.229,0.529-0.689,1.59-0.921,2.129c-4.659,23.141-9.85,46.18-14.608,69.311c-2.65,11.811-4.931,23.709-7.721,35.49
	c8.199,0.102,16.409,0.17,24.62-0.031c1.431-8.209,3.38-16.318,5.101-24.459c1.05-5.51,2.31-10.988,3.51-16.471
	c2.12,0.021,4.26,0.031,6.4,0.041c2.358,0.85,4.89,1.619,6.71,3.449c3.42,3.34,4.39,8.24,5.39,12.721
	c0.27,1.66,0.58,3.311,0.99,4.949c1.43,6.641,2.699,13.311,4.29,19.91c8.51-0.07,17.02-0.01,25.54-0.039
	c-0.36-1.852-0.67-3.711-1.12-5.531c-0.66-2.479-1.28-4.959-1.7-7.469l-0.34-0.521c-1.8-7.738-3.45-15.529-5.85-23.109
	c-2.291-5.021-6.182-9.17-11.33-11.271c1.479-0.199,2.988-0.379,4.52-0.549c5.99-1.711,11.91-4.131,16.681-8.24
	C1173.84,288.939,1176.8,271.41,1168.58,259.589z M1137.77,293.641c-6.698,3.139-14.288,1.92-21.42,2.101
	c0.54-2.312,1.07-4.632,1.512-6.962c1.729-7.639,3.318-15.319,4.938-22.989c5.42,0.16,10.98-0.58,16.29,0.851
	c5.26,1.47,8.91,6.92,8.44,12.34C1147.84,285.33,1143.53,291.27,1137.77,293.641z"/>
<path fill="#050505" d="M1181.2,267.53c1.52-6.6,2.688-13.28,4.42-19.829c27.13,0.059,54.26,0,81.39,0.029
	c1.2,0.08,2.392,0.279,3.59,0.63c-1.92,6.271-2.948,12.78-4.41,19.17c-10.118,0.021-20.229-0.09-30.35,0.06
	c-0.22,1.511-0.46,3.011-0.67,4.521c-3.12,14.281-6.35,28.56-9.02,42.94l-0.392,0.641c-1.84,9.408-3.91,18.779-5.949,28.158
	c-0.649,3.643-1.461,7.262-2.291,10.871c-8.09-0.029-16.18,0-24.26-0.01c1.7-7.531,3.181-15.111,4.851-22.641
	c2.141-10.75,4.591-21.439,6.729-32.189c2.34-10.771,4.562-21.58,6.891-32.36C1201.55,267.52,1191.37,267.52,1181.2,267.53z"/>
<path fill="#050505" d="M1277.89,280.94c2.46-11.01,4.61-22.09,7.11-33.08c6.66-0.34,13.34-0.021,20.02-0.159
	c1.392,0.17,3.41-0.561,4.171,1.129c2.101,3.621,3.641,7.53,5.601,11.23c7.46,15.25,14.939,30.49,22.45,45.709
	c2.71,5.461,5.278,10.98,7.83,16.512c0.93-11.74,4.43-23.08,6.568-34.631c3.03-13.311,5.28-26.831,8.86-40
	c7.43,0.15,14.859,0.04,22.3,0.061c-0.85,4.76-1.85,9.479-2.92,14.189c-4.5,21.75-9.24,43.449-13.72,65.211
	c-1.9,8.238-3.4,16.568-5.38,24.789c-0.11,0.699-0.32,2.09-0.432,2.791c-7.1-0.031-14.188,0.129-21.27-0.062
	c-1.49,0.18-1.58-1.76-2.24-2.629c-7.3-15-14.74-29.941-22.13-44.9c-2.29-4.658-4.51-9.359-6.891-13.971
	c-2.51-5.06-4.859-10.189-7.039-15.39c-0.312,2.04-0.53,4.101-0.881,6.14c-1.961,11.399-4.75,22.641-7.08,33.971
	c-2.439,12.271-5.449,24.432-7.681,36.75c-7.62,0.23-15.239,0.051-22.858,0.109c0.68-2.85,1.229-5.719,1.898-8.559
	c2.26-11.021,4.65-22.021,6.971-33.021C1273.311,302.38,1275.78,291.689,1277.89,280.94z"/>
<path fill="#050505" d="M1402.89,266.94c1.63-6.39,2.45-12.989,4.48-19.28c20.43,0.15,40.86,0.021,61.3,0.07
	c-1.45,6.6-2.71,13.25-4.3,19.83c-12.5-0.03-24.99-0.13-37.48,0.05c-0.229,1.511-0.479,3.021-0.688,4.53
	c-0.45,1.63-0.78,3.29-1.062,4.949c-1.12,4.791-2.108,9.611-3.079,14.431c11.601-0.028,23.199-0.039,34.801,0
	c-0.33,1.472-0.671,2.931-1.012,4.392c-1.02,5.139-2.06,10.289-3.39,15.357c-11.55-0.02-23.1-0.068-34.649,0.021
	c-1.291,8.051-3.979,15.861-4.681,24c13.17-0.029,26.33-0.021,39.5,0c-1.49,6.461-2.76,12.971-4.25,19.43
	c-21.37-0.027-42.74,0-64.11-0.02c1.5-7.271,3.23-14.5,4.592-21.799c2.438-10.973,4.77-21.961,7.04-32.961
	c2.159-9.602,4.01-19.26,6.26-28.84C1402.4,269.72,1402.62,268.32,1402.89,266.94z"/>
<path fill="#050505" d="M983.26,269.89c-1.358-4-2.91-8.07-5.76-11.28c-6.32-7.159-16.12-10.54-25.51-10.43
	c-11.67-0.011-23.34,0.05-34.99-0.39c-1.51-0.051-3.01-0.101-4.5-0.16c-1.19,3.67-1.75,7.5-2.67,11.24
	c-2.75,13.76-5.91,27.439-8.67,41.199c-2.05,9.35-4.09,18.711-5.98,28.09c-2.028,8.82-3.67,17.729-5.778,26.531
	c8.14,0.027,16.29,0.02,24.43,0.01c0.76-3.551,1.39-7.131,2.33-10.631c0.229-1.379,0.45-2.762,0.688-4.141
	c1.771-7.33,3.052-14.77,4.812-22.109c10.38-0.23,20.97,0.859,31.17-1.602c6.25-1.527,12.229-4.209,17.39-8.059
	c8.392-6.381,13.41-16.75,13.642-27.24c0.159-1.33,0.3-2.66,0.42-3.98C983.73,274.621,983.47,272.25,983.26,269.89z M955.87,290.18
	c-2.75,5.149-8.39,7.659-13.78,9.089c-5.56,0.33-11.13,0.223-16.688,0.201c2.488-10.09,4.278-20.35,6.72-30.45
	c0.109-0.66,0.32-1.99,0.43-2.649c7.182,0.27,15.48-1.48,21.521,3.469C960.14,274.701,959.38,284.009,955.87,290.18z"/>
<path fill="#050505" d="M1555.83,262.13c-4.38-8.381-13.891-12.621-22.891-13.711c-13.199-0.819-26.471,0.4-39.649-0.689
	c-1.67-0.01-3.32-0.04-4.95-0.08c-2.029,6.29-2.83,12.88-4.479,19.26c-0.271,1.37-0.48,2.76-0.722,4.131
	c-2.238,9.59-4.09,19.26-6.26,28.859c-0.319,1.648-0.64,3.301-1.02,4.939c-2,9.352-3.921,18.719-6.021,28.039
	c-1.37,7.312-3.108,14.541-4.59,21.82c8.1,0.02,16.188-0.021,24.29,0.02c0.96-3.84,1.62-7.76,2.59-11.6
	c2.021-9.84,3.94-19.719,6.4-29.459c1.85,0.02,3.729,0.039,5.62,0.029c4.368,0.619,7.97,3.381,10.159,7.148
	c3.101,9.191,4.329,18.881,6.591,28.291c0.398,1.799,0.68,3.629,0.97,5.469c8.66,0.23,17.34,0.062,26.01,0.092
	c-1.37-5.512-2.6-11.061-4.09-16.539c-0.229-1.111-0.43-2.211-0.601-3.303c-1.489-4.979-2.319-10.129-3.971-15.059
	c-1.858-5.711-5.979-10.531-11.55-12.881c1.44-0.289,2.86-0.521,4.35-0.779c1.041-0.311,2.102-0.6,3.19-0.871
	c10.9-3.318,20.65-11.879,23.08-23.329C1559.189,275.3,1559.21,268.121,1555.83,262.13z M1526.311,292.07
	c-7.069,4.93-16.079,3.52-24.171,3.689c2.142-10,4.222-20.01,6.44-29.99c6.4,0.359,13.479-1.17,19.3,2.26
	C1536.15,273.5,1534.41,287.25,1526.311,292.07z"/>
</svg>
